<svg xmlns="http://www.w3.org/2000/svg" width="48" height="48" viewBox="0 0 48 48"><g><circle fill="#25D366" cx="24" cy="24" r="24"/><path fill="#FFF" d="M36.1 32.6c-.5 1.4-2.6 2.7-3.6 2.8-1 .1-1.1.9-7.2-1.5-6.1-2.4-9.7-8.4-10-8.8-.3-.4-2.4-3.2-2.4-6.1 0-2.9 1.5-4.3 2-4.8.5-.5 1.1-.6 1.5-.6.4 0 .7 0 1 .1.3.1.7 0 1.1.8.4.8 1.4 2.7 1.5 2.9.1.2.2.4.1.7-.1.3-.2.5-.4.7-.2.2-.4.5-.6.7-.2.2-.4.4-.2.8.2.4 1 1.7 2.1 2.8 1.5 1.5 2.7 2 3.1 2.2.4.2.6.2.8-.1.2-.3.9-1.1 1.1-1.5.2-.4.4-.3.7-.2.3.1 1.7.8 2 1 .3.2.5.2.6.3.1.1.1.7-.1 1.3z"/></g></svg>