<svg width="48" height="48" viewBox="0 0 48 48" fill="none" xmlns="http://www.w3.org/2000/svg">
  <rect width="48" height="48" rx="24" fill="#25D366"/>
  <path d="M24 12C17.3726 12 12 17.3726 12 24C12 25.8452 12.4842 27.6012 13.3571 29.1429L12 36L18.8571 34.6429C20.3988 35.5158 22.1548 36 24 36C30.6274 36 36 30.6274 36 24C36 17.3726 30.6274 12 24 12ZM24 33.4286C22.4062 33.4286 20.8371 33.0321 19.4286 32.2857L19.1429 32.1429L15.4286 32.8571L16.1429 29.1429L16 28.8571C15.2536 27.4486 14.8571 25.8795 14.8571 24.2857C14.8571 18.8571 18.8571 14.8571 24 14.8571C29.1429 14.8571 33.1429 18.8571 33.1429 24C33.1429 29.1429 29.1429 33.1429 24 33.1429V33.4286ZM27.4286 27.1429C27.1429 27.1429 26.8571 27.1429 26.5714 27.1429C25.7143 27.1429 24.8571 26.8571 24.1429 26.4286C23.4286 26 22.8571 25.4286 22.2857 24.8571C21.7143 24.2857 21.1429 23.7143 20.7143 23C20.2857 22.2857 20 21.4286 20 20.5714C20 20.2857 20 20 20.2857 19.7143C20.5714 19.4286 21.1429 19.1429 21.4286 19.1429C21.7143 19.1429 22.2857 19.1429 22.5714 19.7143C22.8571 20.2857 23.1429 20.8571 23.4286 21.1429C23.7143 21.4286 23.7143 21.7143 23.4286 22C23.1429 22.2857 22.8571 22.5714 22.8571 22.8571C22.8571 23.1429 23.1429 23.4286 23.4286 23.7143C23.7143 24 24 24.2857 24.2857 24.5714C24.5714 24.8571 24.8571 25.1429 25.1429 25.1429C25.4286 25.1429 25.7143 24.8571 26 24.5714C26.2857 24.2857 26.5714 24 26.8571 24C27.1429 24 27.4286 24.2857 27.7143 24.5714C28 24.8571 28.2857 25.1429 28.2857 25.4286C28.2857 25.7143 28 26.2857 27.7143 26.5714C27.4286 26.8571 27.1429 27.1429 27.4286 27.1429Z" fill="white"/>
</svg>
